HIERARCHY
ROOT hip
{
  OFFSET 0 0 0
  CHANNELS 6 Xposition Yposition Zposition Zrotation Yrotation Xrotation
  JOINT abdomen
  {
    OFFSET 0 20.6881 -0.73152
    CHANNELS 3 Zrotation Xrotation Yrotation
    JOINT chest
    {
      OFFSET 0 11.7043 -0.48768
      CHANNELS 3 Zrotation Xrotation Yrotation
      JOINT neck
      {
        OFFSET 0 22.1894 -2.19456
        CHANNELS 3 Zrotation Xrotation Yrotation
        JOINT head
        {
          OFFSET -0.24384 7.07133 1.2192
          CHANNELS 3 Zrotation Xrotation Yrotation
          JOINT leftEye
          {
            OFFSET 4.14528 8.04674 8.04672
            CHANNELS 3 Zrotation Xrotation Yrotation
            End Site
            {
              OFFSET 1 0 0
            }
          }
          JOINT rightEye
          {
            OFFSET -3.6576 8.04674 8.04672
            CHANNELS 3 Zrotation Xrotation Yrotation
            End Site
            {
              OFFSET 1 0 0
            }
          }
        }
      }
      JOINT rCollar
      {
        OFFSET -2.68224 19.2634 -4.8768
        CHANNELS 3 Zrotation Xrotation Yrotation
        JOINT rShldr
        {
          OFFSET -8.77824 -1.95073 1.46304
          CHANNELS 3 Zrotation Xrotation Yrotation
          JOINT rForeArm
          {
            OFFSET -28.1742 -1.7115 0.48768
            CHANNELS 3 Zrotation Xrotation Yrotation
            JOINT rHand
            {
              OFFSET -22.5879 0.773209 7.07136
              CHANNELS 3 Zrotation Xrotation Yrotation
              JOINT rThumb1
              {
                OFFSET -1.2192 -0.487915 3.41376
                CHANNELS 3 Zrotation Xrotation Yrotation
                JOINT rThumb2
                {
                  OFFSET -3.37035 -0.52449 3.41376
                  CHANNELS 3 Zrotation Xrotation Yrotation
                  End Site
                  {
                    OFFSET -1.78271 -1.18214 1.43049
                  }
                }
              }
              JOINT rIndex1
              {
                OFFSET -7.75947 0.938293 5.60832
                CHANNELS 3 Zrotation Xrotation Yrotation
                JOINT rIndex2
                {
                  OFFSET -2.54057 -0.884171 1.56538
                  CHANNELS 3 Zrotation Xrotation Yrotation
                  End Site
                  {
                    OFFSET -1.62519 -0.234802 1.16502
                  }
                }
              }
              JOINT rMid1
              {
                OFFSET -8.24714 1.18213 3.41376
                CHANNELS 3 Zrotation Xrotation Yrotation
                JOINT rMid2
                {
                  OFFSET -3.10165 -0.590103 1.0647
                  CHANNELS 3 Zrotation Xrotation Yrotation
                  End Site
                  {
                    OFFSET -2.48547 -0.328903 0.83742
                  }
                }
              }
              JOINT rRing1
              {
                OFFSET -8.82822 0.546677 1.51678
                CHANNELS 3 Zrotation Xrotation Yrotation
                JOINT rRing2
                {
                  OFFSET -2.60934 -0.819778 -0.0198488
                  CHANNELS 3 Zrotation Xrotation Yrotation
                  End Site
                  {
                    OFFSET -2.33842 -0.294052 0.168128
                  }
                }
              }
              JOINT rPinky1
              {
                OFFSET -8.27202 -0.0477905 -0.4584
                CHANNELS 3 Zrotation Xrotation Yrotation
                JOINT rPinky2
                {
                  OFFSET -1.82734 -0.647385 -0.700984
                  CHANNELS 3 Zrotation Xrotation Yrotation
                  End Site
                  {
                    OFFSET -1.69225 -0.51767 -0.607171
                  }
                }
              }
            }
          }
        }
      }
      JOINT lCollar
      {
        OFFSET 2.68224 19.2634 -4.8768
        CHANNELS 3 Zrotation Xrotation Yrotation
        JOINT lShldr
        {
          OFFSET 8.77824 -1.95073 1.46304
          CHANNELS 3 Zrotation Xrotation Yrotation
          JOINT lForeArm
          {
            OFFSET 28.1742 -1.7115 0.48768
            CHANNELS 3 Zrotation Xrotation Yrotation
            JOINT lHand
            {
              OFFSET 22.5879 0.773209 7.07136
              CHANNELS 3 Zrotation Xrotation Yrotation
              JOINT lThumb1
              {
                OFFSET 1.2192 -0.487915 3.41376
                CHANNELS 3 Zrotation Xrotation Yrotation
                JOINT lThumb2
                {
                  OFFSET 3.37035 -0.52449 3.41376
                  CHANNELS 3 Zrotation Xrotation Yrotation
                  End Site
                  {
                    OFFSET 1.78271 -1.18214 1.43049
                  }
                }
              }
              JOINT lIndex1
              {
                OFFSET 7.75947 0.938293 5.60832
                CHANNELS 3 Zrotation Xrotation Yrotation
                JOINT lIndex2
                {
                  OFFSET 2.54057 -0.884171 1.56538
                  CHANNELS 3 Zrotation Xrotation Yrotation
                  End Site
                  {
                    OFFSET 1.62519 -0.234802 1.16502
                  }
                }
              }
              JOINT lMid1
              {
                OFFSET 8.24714 1.18213 3.41376
                CHANNELS 3 Zrotation Xrotation Yrotation
                JOINT lMid2
                {
                  OFFSET 3.10165 -0.590103 1.0647
                  CHANNELS 3 Zrotation Xrotation Yrotation
                  End Site
                  {
                    OFFSET 2.48547 -0.328903 0.83742
                  }
                }
              }
              JOINT lRing1
              {
                OFFSET 8.82822 0.546677 1.51678
                CHANNELS 3 Zrotation Xrotation Yrotation
                JOINT lRing2
                {
                  OFFSET 2.60934 -0.819778 -0.0198488
                  CHANNELS 3 Zrotation Xrotation Yrotation
                  End Site
                  {
                    OFFSET 2.33842 -0.294052 0.168128
                  }
                }
              }
              JOINT lPinky1
              {
                OFFSET 8.27202 -0.0477905 -0.4584
                CHANNELS 3 Zrotation Xrotation Yrotation
                JOINT lPinky2
                {
                  OFFSET 1.82734 -0.647385 -0.700984
                  CHANNELS 3 Zrotation Xrotation Yrotation
                  End Site
                  {
                    OFFSET 1.69225 -0.51767 -0.607171
                  }
                }
              }
            }
          }
        }
      }
    }
  }
  JOINT rButtock
  {
    OFFSET -8.77824 4.35084 1.2192
    CHANNELS 3 Zrotation Xrotation Yrotation
    JOINT rThigh
    {
      OFFSET 0 -1.70687 -2.19456
      CHANNELS 3 Zrotation Xrotation Yrotation
      JOINT rShin
      {
        OFFSET 0 -36.8199 0.73152
        CHANNELS 3 Zrotation Xrotation Yrotation
        JOINT rFoot
        {
          OFFSET 0.73152 -45.1104 -5.12064
          CHANNELS 3 Zrotation Xrotation Yrotation
          End Site
          {
            OFFSET -1.1221 -3.69964 12.103
          }
        }
      }
    }
  }
  JOINT lButtock
  {
    OFFSET 8.77824 4.35084 1.2192
    CHANNELS 3 Zrotation Xrotation Yrotation
    JOINT lThigh
    {
      OFFSET 0 -1.70687 -2.19456
      CHANNELS 3 Zrotation Xrotation Yrotation
      JOINT lShin
      {
        OFFSET 0 -36.8199 0.73152
        CHANNELS 3 Zrotation Xrotation Yrotation
        JOINT lFoot
        {
          OFFSET -0.73152 -45.1104 -5.12064
          CHANNELS 3 Zrotation Xrotation Yrotation
          End Site
          {
            OFFSET 1.1221 -3.69964 12.103
          }
        }
      }
    }
  }
}
MOTION
Frames:	7
Frame Time:	0.00833333
-6.9978 84.515 27.4021 -3.1369 9.2025 21.6625 -11.3135 26.8845 3.21068 1.84721 -14.3414 0.375768 -4.541 2.00863 -3.16935 15.0967 -34.538 -0.71044 -0.0 0.0 0.0 -0.0 0.0 0.0 4.78435e-14 1.62181e-13 -3.16068e-14 5.72873 26.8313 101.931 -9.22933 -58.6178 136.53 -0.750572 -23.8212 -3.55737 2.19131e-09 6.25968e-10 1.4114e-09 3.74884e-09 1.08394e-09 2.48157e-09 2.19131e-09 6.25971e-10 1.41137e-09 7.73091 5.47488 0.417314 2.19131e-09 6.25967e-10 1.4114e-09 2.90554 0.965183 0.102902 2.19131e-09 6.25968e-10 1.4114e-09 10.2786 0.731801 0.0259123 2.1913e-09 6.25968e-10 1.4114e-09 2.22167 -0.733487 -0.20892 4.75759e-14 1.62235e-13 -3.20043e-14 -12.9331 17.9205 -98.6757 10.3956 -58.2508 -134.349 3.70128 -46.6678 8.56727 -2.6014e-09 -8.52802e-11 2.32467e-09 -4.56311e-09 -1.4066e-10 3.91176e-09 -2.60141e-09 -8.52814e-11 2.32468e-09 -7.73091 5.47488 -0.417314 -2.6014e-09 -8.52827e-11 2.32467e-09 -2.90554 0.965183 -0.102902 -2.60141e-09 -8.52828e-11 2.32468e-09 -10.2786 0.731801 -0.0259123 -2.6014e-09 -8.52818e-11 2.32467e-09 -2.22167 -0.733487 0.20892 -2.03217e-16 0.0 -3.88251e-19 -2.12797 -20.4287 -8.56556 0.0155865 0.237207 0.0482822 -3.61414 -10.4363 -15.359 2.03217e-16 0.0 3.88251e-19 10.5628 -38.4408 -11.8898 0.0921719 23.6623 -0.47351 2.65425 -8.90809 12.0803
-6.9284 84.5214 27.4621 -3.0315 9.0895 21.6239 -10.9968 26.7858 3.15279 1.72596 -14.4604 0.369223 -4.47144 2.34795 -3.18313 14.8947 -34.6487 -0.832674 -0.0 0.0 0.0 -0.0 0.0 0.0 8.07039e-14 1.48171e-13 -9.71657e-14 5.51459 27.3167 102.243 -9.41124 -58.5629 136.192 -0.594722 -21.4607 -3.16583 1.71691e-09 4.12007e-10 1.02206e-09 2.93672e-09 7.13712e-10 1.79636e-09 1.71691e-09 4.12009e-10 1.02204e-09 7.73091 5.47488 0.417314 1.71691e-09 4.12005e-10 1.02206e-09 2.90554 0.965183 0.102902 1.71691e-09 4.12006e-10 1.02206e-09 10.2786 0.731801 0.0259123 1.7169e-09 4.12005e-10 1.02207e-09 2.22167 -0.733487 -0.20892 8.04499e-14 1.48216e-13 -9.7554e-14 -12.2321 18.0197 -98.8959 10.596 -58.1842 -133.97 3.1131 -43.7862 7.74217 -2.74704e-09 -1.03638e-10 2.07232e-09 -4.80818e-09 -1.78986e-10 3.46961e-09 -2.74705e-09 -1.03639e-10 2.07234e-09 -7.73091 5.47488 -0.417314 -2.74704e-09 -1.0364e-10 2.07233e-09 -2.90554 0.965183 -0.102902 -2.74705e-09 -1.0364e-10 2.07233e-09 -10.2786 0.731801 -0.0259123 -2.74704e-09 -1.03639e-10 2.07232e-09 -2.22167 -0.733487 0.20892 -2.03217e-16 0.0 -3.88251e-19 -2.21308 -20.3755 -8.42458 0.0167129 0.245679 0.048961 -3.63744 -10.5027 -15.384 2.03217e-16 0.0 3.88251e-19 10.4754 -38.3458 -11.8496 0.0920229 23.6705 -0.474368 2.67866 -8.96031 12.1367
-6.85986 84.5283 27.5154 -2.9388 8.9829 21.6075 -10.6598 26.7353 3.1159 1.53891 -14.6847 0.361438 -4.38456 2.82156 -3.21151 14.6899 -34.8075 -0.994233 -0.0 0.0 0.0 -0.0 0.0 0.0 9.58637e-14 1.16077e-13 -1.48203e-13 5.38719 28.0583 102.62 -9.59884 -58.5054 135.843 -0.452315 -18.9607 -2.76473 9.08885e-10 6.03131e-11 3.92318e-10 1.55309e-09 1.02729e-10 6.90246e-10 9.0889e-10 6.03144e-11 3.92302e-10 7.73091 5.47488 0.417314 9.08887e-10 6.03119e-11 3.9232e-10 2.90554 0.965183 0.102902 9.08888e-10 6.03115e-11 3.9232e-10 10.2786 0.731801 0.0259123 9.0888e-10 6.03108e-11 3.92324e-10 2.22167 -0.733487 -0.20892 9.56684e-14 1.16103e-13 -1.48551e-13 -11.4915 18.21 -99.1368 10.8004 -58.115 -133.583 2.60501 -40.9167 6.99278 -2.55698e-09 -1.12291e-10 1.28871e-09 -4.45543e-09 -1.93287e-10 2.12738e-09 -2.557e-09 -1.12292e-10 1.28873e-09 -7.73091 5.47488 -0.417314 -2.55699e-09 -1.12293e-10 1.28872e-09 -2.90554 0.965183 -0.102902 -2.55699e-09 -1.12293e-10 1.28872e-09 -10.2786 0.731801 -0.0259123 -2.55698e-09 -1.12292e-10 1.28871e-09 -2.22167 -0.733487 0.20892 -2.03217e-16 0.0 -3.88251e-19 -2.31039 -20.3219 -8.28791 0.017873 0.254261 0.0496097 -3.65903 -10.5717 -15.3997 2.03217e-16 0.0 3.88251e-19 10.36 -38.2486 -11.8652 0.0919345 23.6768 -0.475532 2.71445 -9.02429 12.2316
-6.80934 84.536 27.5733 -2.9086 8.8439 21.5737 -10.3081 26.6834 3.06083 1.38092 -14.8948 0.35284 -4.30248 3.2838 -3.23731 14.4657 -34.9504 -1.15604 -0.0 0.0 0.0 -0.0 0.0 0.0 1.01499e-13 8.08034e-14 -1.76736e-13 5.29046 28.7251 102.959 -9.79012 -58.4457 135.486 -0.34039 -16.5508 -2.39124 1.24815e-10 -2.8675e-10 -2.39413e-10 2.1108e-10 -5.00727e-10 -4.18485e-10 1.24819e-10 -2.86749e-10 -2.39421e-10 7.73091 5.47488 0.417314 1.24818e-10 -2.86751e-10 -2.3941e-10 2.90554 0.965183 0.102902 1.2482e-10 -2.86752e-10 -2.39409e-10 10.2786 0.731801 0.0259123 1.24809e-10 -2.86752e-10 -2.39403e-10 2.22167 -0.733487 -0.20892 1.01379e-13 8.08078e-14 -1.77031e-13 -10.8095 18.4103 -99.3588 11.0071 -58.0438 -133.19 2.19027 -38.1857 6.34103 -2.19766e-09 -1.11363e-10 3.6396e-10 -3.80545e-09 -1.88253e-10 5.49051e-10 -2.19767e-09 -1.11363e-10 3.63977e-10 -7.73091 5.47488 -0.417314 -2.19766e-09 -1.11364e-10 3.63967e-10 -2.90554 0.965183 -0.102902 -2.19766e-09 -1.11364e-10 3.63968e-10 -10.2786 0.731801 -0.0259123 -2.19765e-09 -1.11363e-10 3.63959e-10 -2.22167 -0.733487 0.20892 -2.03217e-16 0.0 -3.88251e-19 -2.4154 -20.2741 -8.16073 0.0190539 0.261765 0.0501982 -3.67938 -10.6371 -15.4133 2.03217e-16 0.0 3.88251e-19 10.2346 -38.1581 -11.8957 0.0918577 23.6772 -0.476591 2.75074 -9.08955 12.3269
-6.75901 84.5437 27.6074 -2.876 8.6765 21.6202 -9.94817 26.5807 2.94857 1.34692 -14.971 0.343863 -4.24807 3.58906 -3.24307 14.2068 -35.0135 -1.27827 -0.0 0.0 0.0 -0.0 0.0 0.0 1.05786e-13 5.72543e-14 -1.74781e-13 5.17562 28.9848 103.158 -9.98312 -58.3847 135.124 -0.263567 -14.4614 -2.07716 -2.77725e-10 -4.86819e-10 -6.34708e-10 -4.7618e-10 -8.48375e-10 -1.11155e-09 -2.77722e-10 -4.8682e-10 -6.34712e-10 7.73091 5.47488 0.417314 -2.77722e-10 -4.8682e-10 -6.34705e-10 2.90554 0.965183 0.102902 -2.77719e-10 -4.86822e-10 -6.34703e-10 10.2786 0.731801 0.0259123 -2.77731e-10 -4.86822e-10 -6.34696e-10 2.22167 -0.733487 -0.20892 1.05728e-13 5.72451e-14 -1.7503e-13 -10.2856 18.5407 -99.5202 11.2142 -57.9714 -132.795 1.87058 -35.7211 5.80064 -1.83548e-09 -1.00973e-10 -3.11822e-10 -3.15878e-09 -1.68573e-10 -6.0141e-10 -1.8355e-09 -1.00972e-10 -3.11806e-10 -7.73091 5.47488 -0.417314 -1.83549e-09 -1.00973e-10 -3.11815e-10 -2.90554 0.965183 -0.102902 -1.83549e-09 -1.00973e-10 -3.11816e-10 -10.2786 0.731801 -0.0259123 -1.83548e-09 -1.00973e-10 -3.11825e-10 -2.22167 -0.733487 0.20892 -2.03217e-16 0.0 -3.88251e-19 -2.52355 -20.2381 -8.04815 0.0202425 0.267003 0.0506964 -3.69898 -10.6928 -15.4325 2.03217e-16 0.0 3.88251e-19 10.117 -38.0832 -11.9006 0.0917433 23.6679 -0.477134 2.77641 -9.14569 12.3847
-6.68306 84.5507 27.615 -2.7334 8.6855 21.645 -9.59295 26.4021 2.74646 1.53143 -14.8396 0.336133 -4.23787 3.67084 -3.21704 13.8879 -34.9783 -1.33851 -0.0 0.0 0.0 -0.0 0.0 0.0 1.08425e-13 5.2609e-14 -1.25357e-13 5.00521 28.6134 103.148 -10.1812 -58.3211 134.752 -0.212174 -12.8231 -1.83522 -1.28827e-10 -4.55182e-10 -7.02604e-10 -2.17116e-10 -7.92891e-10 -1.22838e-09 -1.28824e-10 -4.55184e-10 -7.02607e-10 7.73091 5.47488 0.417314 -1.28824e-10 -4.55184e-10 -7.02602e-10 2.90554 0.965183 0.102902 -1.2882e-10 -4.55186e-10 -7.02599e-10 10.2786 0.731801 0.0259123 -1.28833e-10 -4.55185e-10 -7.02593e-10 2.22167 -0.733487 -0.20892 1.08419e-13 5.25975e-14 -1.25564e-13 -9.99272 18.558 -99.5908 11.4303 -57.8946 -132.382 1.62483 -33.5912 5.36121 -1.43349e-09 -7.60886e-11 -6.459e-10 -2.4546e-09 -1.26464e-10 -1.16365e-09 -1.4335e-09 -7.60862e-11 -6.45886e-10 -7.73091 5.47488 -0.417314 -1.43349e-09 -7.60872e-11 -6.45895e-10 -2.90554 0.965183 -0.102902 -1.43349e-09 -7.60874e-11 -6.45897e-10 -10.2786 0.731801 -0.0259123 -1.43349e-09 -7.60881e-11 -6.45905e-10 -2.22167 -0.733487 0.20892 -2.03217e-16 0.0 -3.88251e-19 -2.63109 -20.213 -7.95686 0.0214384 0.268861 0.0510705 -3.71776 -10.7347 -15.4599 2.03217e-16 0.0 3.88251e-19 10.0135 -38.0261 -11.8701 0.091569 23.6447 -0.476925 2.78696 -9.19007 12.389
-6.62416 84.5593 27.664 -2.6712 8.5871 21.6153 -9.23696 26.1776 2.48347 1.86085 -14.5784 0.328939 -4.25633 3.61603 -3.17078 13.525 -34.8796 -1.36157 -0.0 0.0 0.0 -0.0 0.0 0.0 1.05882e-13 5.78505e-14 -3.76728e-14 4.81595 27.836 102.99 -10.3838 -58.2549 134.371 -0.170965 -11.4909 -1.63905 3.55951e-10 -2.83349e-10 -5.79387e-10 6.18578e-10 -4.9373e-10 -1.00839e-09 3.55953e-10 -2.83352e-10 -5.79392e-10 7.73091 5.47488 0.417314 3.55953e-10 -2.83352e-10 -5.79387e-10 2.90554 0.965183 0.102902 3.55958e-10 -2.83353e-10 -5.79384e-10 10.2786 0.731801 0.0259123 3.55946e-10 -2.83351e-10 -5.79379e-10 2.22167 -0.733487 -0.20892 1.0593e-13 5.78423e-14 -3.78343e-14 -9.86299 18.5136 -99.5973 11.6532 -57.814 -131.953 1.42205 -31.7197 4.98743 -9.30025e-10 -3.83333e-11 -8.42572e-10 -1.57959e-09 -6.24383e-11 -1.48622e-09 -9.30032e-10 -3.83288e-11 -8.42561e-10 -7.73091 5.47488 -0.417314 -9.30027e-10 -3.83305e-11 -8.42568e-10 -2.90554 0.965183 -0.102902 -9.30032e-10 -3.83309e-11 -8.4257e-10 -10.2786 0.731801 -0.0259123 -9.30025e-10 -3.83331e-11 -8.42579e-10 -2.22167 -0.733487 0.20892 -2.03217e-16 0.0 -3.88251e-19 -2.74115 -20.1963 -7.8823 0.0226475 0.26824 0.0513452 -3.73552 -10.7669 -15.4914 2.03217e-16 0.0 3.88251e-19 9.91397 -37.9821 -11.8254 0.0913649 23.6107 -0.476228 2.78866 -9.22825 12.3621
